<svg width="58" height="58" viewBox="0 0 58 58" fill="none" xmlns="http://www.w3.org/2000/svg">
<circle cx="29" cy="29" r="29" fill="#14151A"/>
<path d="M44.9344 30.7025C44.6729 30.7025 44.4203 30.5969 44.2342 30.4109C44.048 30.2248 43.9425 29.9723 43.9425 29.7108C43.9425 23.3655 38.949 18.3721 32.6038 18.3721C32.3423 18.3721 32.0897 18.2666 31.9037 18.0804C31.7176 17.8943 31.612 17.6417 31.612 17.3802C31.612 17.1187 31.7176 16.8661 31.9037 16.68C32.0897 16.494 32.3423 16.3884 32.6038 16.3884C40.0455 16.3884 45.9262 22.2691 45.9262 29.7108C45.9262 29.9723 45.8206 30.2248 45.6346 30.4109C45.4485 30.5969 45.196 30.7025 44.9344 30.7025Z" fill="url(#paint0_linear_118_13451)"/>
<path d="M19.2024 44.4344C19.1222 44.4344 19.0425 44.4242 18.9651 44.404C14.6696 43.5022 10.6221 41.3679 7.37469 38.1253C4.13372 34.8781 1.99938 30.8306 1.09763 26.5352C1.04117 26.2253 1.14572 25.9061 1.37821 25.6867C1.6107 25.4673 1.93825 25.3837 2.24807 25.4624C2.55789 25.541 2.80292 25.7735 2.90153 26.0744C3.72331 29.9801 5.68383 33.6682 8.62765 36.6147C11.574 39.5636 15.2621 41.5292 19.1678 42.3459C19.3193 42.3727 19.462 42.4337 19.5868 42.5243C19.7117 42.615 19.8154 42.7333 19.89 42.8699C19.9645 43.0065 20.0078 43.1579 20.0168 43.3132C20.0258 43.4685 20.0001 43.6241 19.9418 43.7679C19.8236 44.0212 19.5908 44.2026 19.3176 44.2592C19.2799 44.2663 19.2422 44.27 19.2024 44.27" fill="url(#paint1_linear_118_13451)"/>
<path d="M19.2025 44.4344C18.941 44.4344 18.6884 44.3289 18.5023 44.1428C18.3163 43.9567 18.2107 43.7042 18.2107 43.4426C18.2107 43.181 18.3163 42.9285 18.5023 42.7424C18.6884 42.5564 18.941 42.4508 19.2025 42.4508C25.5529 42.4508 30.5413 37.4623 30.5413 31.112C30.5413 30.8504 30.6469 30.598 30.833 30.4119C31.019 30.2258 31.2716 30.1202 31.5331 30.1202C31.7946 30.1202 32.0472 30.2258 32.2333 30.4119C32.4193 30.598 32.5249 30.8504 32.5249 31.112C32.5249 38.5537 26.6442 44.4344 19.2025 44.4344Z" fill="url(#paint2_linear_118_13451)"/>
<path d="M44.9343 30.7025C44.8542 30.7025 44.7745 30.6923 44.697 30.6721C44.4545 30.6125 44.2551 30.4384 44.162 30.2019C44.1036 30.058 44.078 29.9024 44.087 29.7471C44.096 29.5919 44.1392 29.4405 44.2138 29.3038C44.2883 29.1672 44.392 29.049 44.5169 28.9583C44.6418 28.8676 44.7845 28.8067 44.936 28.78C48.8416 27.9582 52.5298 25.9926 55.4761 23.0437C58.42 20.0972 60.3805 16.4092 61.2022 12.5034C61.2469 12.3505 61.327 12.2093 61.4366 12.0908C61.5462 11.9722 61.6826 11.8795 61.8344 11.8208C61.9861 11.7621 62.1488 11.7389 62.311 11.7529C62.4732 11.7668 62.6304 11.8177 62.7705 11.9017C62.9106 11.9857 63.0297 12.1005 63.1183 12.2373C63.207 12.3741 63.2631 12.5291 63.2822 12.6907C63.3013 12.8522 63.2829 13.0163 63.2284 13.1699C63.1739 13.3235 63.0846 13.4624 62.9677 13.5754C60.948 16.0066 58.4384 18.0041 55.6099 19.4489C52.7814 20.8937 49.6903 21.7543 46.5214 21.9792C46.6054 24.0752 46.3284 26.1714 45.7017 28.1726C45.596 28.5466 45.2834 28.8101 44.8979 28.8489C44.877 28.8489 44.8878 28.8502 44.8684 28.8502L44.9343 30.7025Z" fill="url(#paint3_linear_118_13451)"/>
<path d="M19.2025 44.4344C16.0324 44.2095 12.9414 43.3489 10.1129 41.9041C7.28437 40.4594 4.77472 38.4618 2.75504 36.0307C2.63814 35.9176 2.54891 35.7788 2.49442 35.6252C2.43993 35.4715 2.42148 35.3075 2.44055 35.146C2.45963 34.9844 2.51581 34.8294 2.60442 34.6926C2.69304 34.5558 2.81215 34.441 2.9522 34.357C3.09225 34.273 3.24952 34.2221 3.41173 34.2082C3.57394 34.1943 3.73668 34.2175 3.88838 34.2762C4.04009 34.3349 4.17653 34.4276 4.28611 34.5462C4.39568 34.6647 4.47583 34.8059 4.52057 34.9588C5.34235 38.8646 7.30287 42.5526 10.2467 45.4992C13.193 48.448 16.8811 50.4137 20.7869 51.2304C20.9384 51.2572 21.0811 51.3182 21.2059 51.4089C21.3307 51.4995 21.4344 51.6178 21.509 51.7544C21.5835 51.891 21.6268 52.0424 21.6358 52.1977C21.6448 52.3531 21.6191 52.5087 21.5608 52.6525C21.4763 52.889 21.2926 53.0755 21.0646 53.1735C20.8367 53.2714 20.5771 53.2726 20.348 53.1763C16.0526 52.2746 12.0051 50.1402 8.75771 46.8977C5.51673 43.6554 3.3824 39.6079 2.48065 35.3125C2.42419 35.0026 2.52874 34.6833 2.76123 34.464C2.99372 34.2446 3.32127 34.161 3.63109 34.2396C3.94091 34.3182 4.18594 34.5508 4.28455 34.8516C4.28594 34.8565 4.28733 34.8602 4.28872 34.8651L19.2025 44.4344Z" fill="url(#paint4_linear_118_13451)"/>
<defs>
<linearGradient id="paint0_linear_118_13451" x1="39.9568" y1="16.3884" x2="39.0743" y2="30.0914" gradientUnits="userSpaceOnUse">
<stop offset="0.08" stop-color="#9945FF"/>
<stop offset="0.3" stop-color="#8752F3"/>
<stop offset="0.5" stop-color="#5497D5"/>
<stop offset="0.6" stop-color="#43B4CA"/>
<stop offset="0.72" stop-color="#28E0B9"/>
<stop offset="0.97" stop-color="#19FB9B"/>
</linearGradient>
<linearGradient id="paint1_linear_118_13451" x1="10.5578" y1="28.9492" x2="19.7204" y2="40.2683" gradientUnits="userSpaceOnUse">
<stop offset="0.08" stop-color="#9945FF"/>
<stop offset="0.3" stop-color="#8752F3"/>
<stop offset="0.5" stop-color="#5497D5"/>
<stop offset="0.6" stop-color="#43B4CA"/>
<stop offset="0.72" stop-color="#28E0B9"/>
<stop offset="0.97" stop-color="#19FB9B"/>
</linearGradient>
<linearGradient id="paint2_linear_118_13451" x1="27.155" y1="30.1202" x2="23.0287" y2="43.2483" gradientUnits="userSpaceOnUse">
<stop offset="0.08" stop-color="#9945FF"/>
<stop offset="0.3" stop-color="#8752F3"/>
<stop offset="0.5" stop-color="#5497D5"/>
<stop offset="0.6" stop-color="#43B4CA"/>
<stop offset="0.72" stop-color="#28E0B9"/>
<stop offset="0.97" stop-color="#19FB9B"/>
</linearGradient>
<linearGradient id="paint3_linear_118_13451" x1="54.1957" y1="21.1718" x2="45.3378" y2="29.9419" gradientUnits="userSpaceOnUse">
<stop offset="0.08" stop-color="#9945FF"/>
<stop offset="0.3" stop-color="#8752F3"/>
<stop offset="0.5" stop-color="#5497D5"/>
<stop offset="0.6" stop-color="#43B4CA"/>
<stop offset="0.72" stop-color="#28E0B9"/>
<stop offset="0.97" stop-color="#19FB9B"/>
</linearGradient>
<linearGradient id="paint4_linear_118_13451" x1="12.9496" y1="48.9576" x2="2.40917" y2="36.9164" gradientUnits="userSpaceOnUse">
<stop offset="0.08" stop-color="#9945FF"/>
<stop offset="0.3" stop-color="#8752F3"/>
<stop offset="0.5" stop-color="#5497D5"/>
<stop offset="0.6" stop-color="#43B4CA"/>
<stop offset="0.72" stop-color="#28E0B9"/>
<stop offset="0.97" stop-color="#19FB9B"/>
</linearGradient>
</defs>
</svg>
